{
	"asset":{
		"generator":"Khronos glTF Blender I/O v3.6.27",
		"version":"2.0"
	},
	"scene":0,
	"scenes":[
		{
			"name":"Scene",
			"nodes":[
				0,
				1,
				2,
				3,
				4,
				5,
				6,
				7
			]
		}
	],
	"nodes":[
		{
			"mesh":0,
			"name":"Fl\u00e4chen Boden",
			"rotation":[
				0.70710688829422,
				0,
				0,
				0.7071066498756409
			],
			"scale":[
				0.0009999999310821295,
				0.0009999993490055203,
				0.0009999993490055203
			],
			"translation":[
				-0.0004999041557312012,
				-0.18049998581409454,
				0
			]
		},
		{
			"mesh":1,
			"name":"Fl\u00e4chen Deckel",
			"rotation":[
				0.70710688829422,
				0,
				0,
				0.7071066498756409
			],
			"scale":[
				0.0009999999310821295,
				0.0009999993490055203,
				0.0009999993490055203
			],
			"translation":[
				0,
				0.18799999356269836,
				0
			]
		},
		{
			"mesh":2,
			"name":"Fl\u00e4chen Seite A",
			"rotation":[
				0.70710688829422,
				0,
				0,
				0.7071066498756409
			],
			"scale":[
				0.0010000000474974513,
				0.0009999996982514858,
				0.0009999996982514858
			]
		},
		{
			"mesh":3,
			"name":"Fl\u00e4chen Seite B",
			"rotation":[
				0.70710688829422,
				0,
				0,
				0.7071066498756409
			],
			"scale":[
				0.0009999999310821295,
				0.0009999993490055203,
				0.0009999993490055203
			]
		},
		{
			"mesh":4,
			"name":"innen A 1",
			"rotation":[
				0.70710688829422,
				0,
				0,
				0.7071066498756409
			],
			"scale":[
				0.0009999999310821295,
				0.0009999993490055203,
				0.0009999993490055203
			],
			"translation":[
				-0.7901946306228638,
				-0.0059998249635100365,
				-0.26600444316864014
			]
		},
		{
			"mesh":5,
			"name":"innen B1",
			"rotation":[
				0.70710688829422,
				0,
				0,
				0.7071066498756409
			],
			"scale":[
				0.0009999999310821295,
				0.0009999993490055203,
				0.0009999993490055203
			],
			"translation":[
				7.033348083496094e-05,
				0,
				-0.0004096031188964844
			]
		},
		{
			"mesh":6,
			"name":"Kanten Boden",
			"rotation":[
				0.70710688829422,
				0,
				0,
				0.7071066498756409
			],
			"scale":[
				0.0009999999310821295,
				0.0009999993490055203,
				0.0009999993490055203
			],
			"translation":[
				-0.0004999041557312012,
				-0.18049998581409454,
				0
			]
		},
		{
			"mesh":7,
			"name":"Kanten Deckel",
			"rotation":[
				0.70710688829422,
				0,
				0,
				0.7071066498756409
			],
			"scale":[
				0.0009999999310821295,
				0.0009999993490055203,
				0.0009999993490055203
			],
			"translation":[
				0,
				0.18799999356269836,
				0
			]
		}
	],
	"materials":[
		{
			"doubleSided":true,
			"name":"U cube.002",
			"normalTexture":{
				"index":0
			},
			"pbrMetallicRoughness":{
				"baseColorTexture":{
					"index":1
				},
				"metallicRoughnessTexture":{
					"index":2
				}
			}
		}
	],
	"meshes":[
		{
			"name":"Fl\u00e4chen Boden.001",
			"primitives":[
				{
					"attributes":{
						"POSITION":0,
						"NORMAL":1,
						"TEXCOORD_0":2,
						"TEXCOORD_1":3
					},
					"indices":4,
					"material":0
				}
			]
		},
		{
			"name":"Fl\u00e4chen Deckel.001",
			"primitives":[
				{
					"attributes":{
						"POSITION":5,
						"NORMAL":6,
						"TEXCOORD_0":7,
						"TEXCOORD_1":8
					},
					"indices":9,
					"material":0
				}
			]
		},
		{
			"name":"Fl\u00e4chen Seite A.001",
			"primitives":[
				{
					"attributes":{
						"POSITION":10,
						"NORMAL":11,
						"TEXCOORD_0":12,
						"TEXCOORD_1":13
					},
					"indices":14,
					"material":0
				}
			]
		},
		{
			"name":"Fl\u00e4chen Seite B.001",
			"primitives":[
				{
					"attributes":{
						"POSITION":15,
						"NORMAL":16,
						"TEXCOORD_0":17,
						"TEXCOORD_1":18
					},
					"indices":19,
					"material":0
				}
			]
		},
		{
			"name":"innen A 1.001",
			"primitives":[
				{
					"attributes":{
						"POSITION":20,
						"NORMAL":21,
						"TEXCOORD_0":22,
						"TEXCOORD_1":23
					},
					"indices":24,
					"material":0
				}
			]
		},
		{
			"name":"innen B1.001",
			"primitives":[
				{
					"attributes":{
						"POSITION":25,
						"NORMAL":26,
						"TEXCOORD_0":27,
						"TEXCOORD_1":28
					},
					"indices":29,
					"material":0
				}
			]
		},
		{
			"name":"Kanten Boden.001",
			"primitives":[
				{
					"attributes":{
						"POSITION":30,
						"NORMAL":31,
						"TEXCOORD_0":32,
						"TEXCOORD_1":33
					},
					"indices":34,
					"material":0
				}
			]
		},
		{
			"name":"Kanten Deckel.001",
			"primitives":[
				{
					"attributes":{
						"POSITION":35,
						"NORMAL":36,
						"TEXCOORD_0":37,
						"TEXCOORD_1":38
					},
					"indices":39,
					"material":0
				}
			]
		}
	],
	"textures":[
		{
			"sampler":0,
			"source":0
		},
		{
			"sampler":0,
			"source":1
		},
		{
			"sampler":0,
			"source":2
		}
	],
	"images":[
		{
			"mimeType":"image/jpeg",
			"name":"u_cube_normal_1",
			"uri":"u_cube_normal_1.jpg"
		},
		{
			"mimeType":"image/jpeg",
			"name":"u_cube_base_color_1",
			"uri":"u_cube_base_color_1.jpg"
		},
		{
			"mimeType":"image/png",
			"name":"u_cube_metallic_cube_roughness_1",
			"uri":"u_cube_metallic_cube_roughness_1.png"
		}
	],
	"accessors":[
		{
			"bufferView":0,
			"componentType":5126,
			"count":8,
			"max":[
				194.00006103515625,
				194.00003051757812,
				4.499550819396973
			],
			"min":[
				-194,
				-194.00003051757812,
				-4.500022888183594
			],
			"type":"VEC3"
		},
		{
			"bufferView":1,
			"componentType":5126,
			"count":8,
			"type":"VEC3"
		},
		{
			"bufferView":2,
			"componentType":5126,
			"count":8,
			"type":"VEC2"
		},
		{
			"bufferView":3,
			"componentType":5126,
			"count":8,
			"type":"VEC2"
		},
		{
			"bufferView":4,
			"componentType":5123,
			"count":12,
			"type":"SCALAR"
		},
		{
			"bufferView":5,
			"componentType":5126,
			"count":16,
			"max":[
				194,
				194.00006103515625,
				11.990966796875
			],
			"min":[
				-194,
				-193.99993896484375,
				-12
			],
			"type":"VEC3"
		},
		{
			"bufferView":6,
			"componentType":5126,
			"count":16,
			"type":"VEC3"
		},
		{
			"bufferView":7,
			"componentType":5126,
			"count":16,
			"type":"VEC2"
		},
		{
			"bufferView":8,
			"componentType":5126,
			"count":16,
			"type":"VEC2"
		},
		{
			"bufferView":9,
			"componentType":5123,
			"count":36,
			"type":"SCALAR"
		},
		{
			"bufferView":10,
			"componentType":5126,
			"count":356,
			"max":[
				198.99786376953125,
				200,
				198.9979248046875
			],
			"min":[
				-199.00006103515625,
				-200,
				-199
			],
			"type":"VEC3"
		},
		{
			"bufferView":11,
			"componentType":5126,
			"count":356,
			"type":"VEC3"
		},
		{
			"bufferView":12,
			"componentType":5126,
			"count":356,
			"type":"VEC2"
		},
		{
			"bufferView":13,
			"componentType":5126,
			"count":356,
			"type":"VEC2"
		},
		{
			"bufferView":14,
			"componentType":5123,
			"count":978,
			"type":"SCALAR"
		},
		{
			"bufferView":15,
			"componentType":5126,
			"count":352,
			"max":[
				200,
				198.9979248046875,
				198.9979248046875
			],
			"min":[
				-200,
				-199,
				-199
			],
			"type":"VEC3"
		},
		{
			"bufferView":16,
			"componentType":5126,
			"count":352,
			"type":"VEC3"
		},
		{
			"bufferView":17,
			"componentType":5126,
			"count":352,
			"type":"VEC2"
		},
		{
			"bufferView":18,
			"componentType":5126,
			"count":352,
			"type":"VEC2"
		},
		{
			"bufferView":19,
			"componentType":5123,
			"count":960,
			"type":"SCALAR"
		},
		{
			"bufferView":20,
			"componentType":5126,
			"count":1539,
			"max":[
				990.2037353515625,
				466.004638671875,
				194.0093231201172
			],
			"min":[
				590.194580078125,
				65.92216491699219,
				-205.99986267089844
			],
			"type":"VEC3"
		},
		{
			"bufferView":21,
			"componentType":5126,
			"count":1539,
			"type":"VEC3"
		},
		{
			"bufferView":22,
			"componentType":5126,
			"count":1539,
			"type":"VEC2"
		},
		{
			"bufferView":23,
			"componentType":5126,
			"count":1539,
			"type":"VEC2"
		},
		{
			"bufferView":24,
			"componentType":5123,
			"count":2805,
			"type":"SCALAR"
		},
		{
			"bufferView":25,
			"componentType":5126,
			"count":2005,
			"max":[
				199.9296875,
				200.40927124023438,
				199.99945068359375
			],
			"min":[
				-200.2650146484375,
				-199.58999633789062,
				-199.99981689453125
			],
			"type":"VEC3"
		},
		{
			"bufferView":26,
			"componentType":5126,
			"count":2005,
			"type":"VEC3"
		},
		{
			"bufferView":27,
			"componentType":5126,
			"count":2005,
			"type":"VEC2"
		},
		{
			"bufferView":28,
			"componentType":5126,
			"count":2005,
			"type":"VEC2"
		},
		{
			"bufferView":29,
			"componentType":5123,
			"count":3546,
			"type":"SCALAR"
		},
		{
			"bufferView":30,
			"componentType":5126,
			"count":16,
			"max":[
				194.00003051757812,
				194.00001525878906,
				4.499550819396973
			],
			"min":[
				-194,
				-194.00001525878906,
				-4.500022888183594
			],
			"type":"VEC3"
		},
		{
			"bufferView":31,
			"componentType":5126,
			"count":16,
			"type":"VEC3"
		},
		{
			"bufferView":32,
			"componentType":5126,
			"count":16,
			"type":"VEC2"
		},
		{
			"bufferView":33,
			"componentType":5126,
			"count":16,
			"type":"VEC2"
		},
		{
			"bufferView":34,
			"componentType":5123,
			"count":24,
			"type":"SCALAR"
		},
		{
			"bufferView":35,
			"componentType":5126,
			"count":126,
			"max":[
				194,
				194.00001525878906,
				11.990966796875
			],
			"min":[
				-194,
				-193.99998474121094,
				-12
			],
			"type":"VEC3"
		},
		{
			"bufferView":36,
			"componentType":5126,
			"count":126,
			"type":"VEC3"
		},
		{
			"bufferView":37,
			"componentType":5126,
			"count":126,
			"type":"VEC2"
		},
		{
			"bufferView":38,
			"componentType":5126,
			"count":126,
			"type":"VEC2"
		},
		{
			"bufferView":39,
			"componentType":5123,
			"count":204,
			"type":"SCALAR"
		}
	],
	"bufferViews":[
		{
			"buffer":0,
			"byteLength":96,
			"byteOffset":0,
			"target":34962
		},
		{
			"buffer":0,
			"byteLength":96,
			"byteOffset":96,
			"target":34962
		},
		{
			"buffer":0,
			"byteLength":64,
			"byteOffset":192,
			"target":34962
		},
		{
			"buffer":0,
			"byteLength":64,
			"byteOffset":256,
			"target":34962
		},
		{
			"buffer":0,
			"byteLength":24,
			"byteOffset":320,
			"target":34963
		},
		{
			"buffer":0,
			"byteLength":192,
			"byteOffset":344,
			"target":34962
		},
		{
			"buffer":0,
			"byteLength":192,
			"byteOffset":536,
			"target":34962
		},
		{
			"buffer":0,
			"byteLength":128,
			"byteOffset":728,
			"target":34962
		},
		{
			"buffer":0,
			"byteLength":128,
			"byteOffset":856,
			"target":34962
		},
		{
			"buffer":0,
			"byteLength":72,
			"byteOffset":984,
			"target":34963
		},
		{
			"buffer":0,
			"byteLength":4272,
			"byteOffset":1056,
			"target":34962
		},
		{
			"buffer":0,
			"byteLength":4272,
			"byteOffset":5328,
			"target":34962
		},
		{
			"buffer":0,
			"byteLength":2848,
			"byteOffset":9600,
			"target":34962
		},
		{
			"buffer":0,
			"byteLength":2848,
			"byteOffset":12448,
			"target":34962
		},
		{
			"buffer":0,
			"byteLength":1956,
			"byteOffset":15296,
			"target":34963
		},
		{
			"buffer":0,
			"byteLength":4224,
			"byteOffset":17252,
			"target":34962
		},
		{
			"buffer":0,
			"byteLength":4224,
			"byteOffset":21476,
			"target":34962
		},
		{
			"buffer":0,
			"byteLength":2816,
			"byteOffset":25700,
			"target":34962
		},
		{
			"buffer":0,
			"byteLength":2816,
			"byteOffset":28516,
			"target":34962
		},
		{
			"buffer":0,
			"byteLength":1920,
			"byteOffset":31332,
			"target":34963
		},
		{
			"buffer":0,
			"byteLength":18468,
			"byteOffset":33252,
			"target":34962
		},
		{
			"buffer":0,
			"byteLength":18468,
			"byteOffset":51720,
			"target":34962
		},
		{
			"buffer":0,
			"byteLength":12312,
			"byteOffset":70188,
			"target":34962
		},
		{
			"buffer":0,
			"byteLength":12312,
			"byteOffset":82500,
			"target":34962
		},
		{
			"buffer":0,
			"byteLength":5610,
			"byteOffset":94812,
			"target":34963
		},
		{
			"buffer":0,
			"byteLength":24060,
			"byteOffset":100424,
			"target":34962
		},
		{
			"buffer":0,
			"byteLength":24060,
			"byteOffset":124484,
			"target":34962
		},
		{
			"buffer":0,
			"byteLength":16040,
			"byteOffset":148544,
			"target":34962
		},
		{
			"buffer":0,
			"byteLength":16040,
			"byteOffset":164584,
			"target":34962
		},
		{
			"buffer":0,
			"byteLength":7092,
			"byteOffset":180624,
			"target":34963
		},
		{
			"buffer":0,
			"byteLength":192,
			"byteOffset":187716,
			"target":34962
		},
		{
			"buffer":0,
			"byteLength":192,
			"byteOffset":187908,
			"target":34962
		},
		{
			"buffer":0,
			"byteLength":128,
			"byteOffset":188100,
			"target":34962
		},
		{
			"buffer":0,
			"byteLength":128,
			"byteOffset":188228,
			"target":34962
		},
		{
			"buffer":0,
			"byteLength":48,
			"byteOffset":188356,
			"target":34963
		},
		{
			"buffer":0,
			"byteLength":1512,
			"byteOffset":188404,
			"target":34962
		},
		{
			"buffer":0,
			"byteLength":1512,
			"byteOffset":189916,
			"target":34962
		},
		{
			"buffer":0,
			"byteLength":1008,
			"byteOffset":191428,
			"target":34962
		},
		{
			"buffer":0,
			"byteLength":1008,
			"byteOffset":192436,
			"target":34962
		},
		{
			"buffer":0,
			"byteLength":408,
			"byteOffset":193444,
			"target":34963
		}
	],
	"samplers":[
		{
			"magFilter":9729,
			"minFilter":9987
		}
	],
	"buffers":[
		{
			"byteLength":193852,
			"uri":"u_cube.bin"
		}
	]
}
