{
    "asset": {
        "generator": "https://3dviewer.net",
        "version": "2.0"
    },
    "scene": 0,
    "scenes": [
        {
            "nodes": [
                0,
                1,
                2,
                3,
                4
            ]
        }
    ],
    "nodes": [
        {
            "mesh": 0
        },
        {
            "mesh": 1
        },
        {
            "mesh": 2,
            "matrix": [
                1,
                0,
                0,
                0,
                0,
                1,
                0,
                0,
                0,
                0,
                1,
                0,
                0,
                0.06366865336894989,
                0,
                1
            ]
        },
        {
            "mesh": 3,
            "matrix": [
                1,
                0,
                0,
                0,
                0,
                1,
                0,
                0,
                0,
                0,
                1,
                0,
                -0.007000840734690428,
                -0.06366866081953049,
                0,
                1
            ]
        },
        {
            "mesh": 4
        }
    ],
    "materials": [
        {
            "name": "Box_mat",
            "pbrMetallicRoughness": {
                "baseColorFactor": [
                    1,
                    1,
                    1,
                    1
                ],
                "baseColorTexture": {
                    "index": 0
                },
                "metallicRoughnessTexture": {
                    "index": 1
                }
            },
            "emissiveFactor": [
                0,
                0,
                0
            ],
            "doubleSided": true,
            "alphaMode": "OPAQUE",
            "normalTexture": {
                "index": 2
            }
        }
    ],
    "meshes": [
        {
            "name": "Cube.029",
            "primitives": [
                {
                    "attributes": {
                        "POSITION": 1,
                        "NORMAL": 2,
                        "TEXCOORD_0": 3
                    },
                    "mode": 4,
                    "material": 0,
                    "indices": 0
                }
            ]
        },
        {
            "name": "Cube.030",
            "primitives": [
                {
                    "attributes": {
                        "POSITION": 5,
                        "NORMAL": 6,
                        "TEXCOORD_0": 7
                    },
                    "mode": 4,
                    "material": 0,
                    "indices": 4
                }
            ]
        },
        {
            "name": "Cube.031",
            "primitives": [
                {
                    "attributes": {
                        "POSITION": 9,
                        "NORMAL": 10,
                        "TEXCOORD_0": 11
                    },
                    "mode": 4,
                    "material": 0,
                    "indices": 8
                }
            ]
        },
        {
            "name": "Cube.032",
            "primitives": [
                {
                    "attributes": {
                        "POSITION": 13,
                        "NORMAL": 14,
                        "TEXCOORD_0": 15
                    },
                    "mode": 4,
                    "material": 0,
                    "indices": 12
                }
            ]
        },
        {
            "name": "Cube.033",
            "primitives": [
                {
                    "attributes": {
                        "POSITION": 17,
                        "NORMAL": 18,
                        "TEXCOORD_0": 19
                    },
                    "mode": 4,
                    "material": 0,
                    "indices": 16
                }
            ]
        }
    ],
    "buffers": [
        {
            "uri": "model.bin",
            "byteLength": 504844
        }
    ],
    "bufferViews": [
        {
            "buffer": 0,
            "byteOffset": 0,
            "byteLength": 20160,
            "target": 34963
        },
        {
            "buffer": 0,
            "byteOffset": 20160,
            "byteLength": 36288,
            "target": 34962
        },
        {
            "buffer": 0,
            "byteOffset": 56448,
            "byteLength": 36288,
            "target": 34962
        },
        {
            "buffer": 0,
            "byteOffset": 92736,
            "byteLength": 24192,
            "target": 34962
        },
        {
            "buffer": 0,
            "byteOffset": 116928,
            "byteLength": 35472,
            "target": 34963
        },
        {
            "buffer": 0,
            "byteOffset": 152400,
            "byteLength": 64008,
            "target": 34962
        },
        {
            "buffer": 0,
            "byteOffset": 216408,
            "byteLength": 64008,
            "target": 34962
        },
        {
            "buffer": 0,
            "byteOffset": 280416,
            "byteLength": 42672,
            "target": 34962
        },
        {
            "buffer": 0,
            "byteOffset": 323088,
            "byteLength": 144,
            "target": 34963
        },
        {
            "buffer": 0,
            "byteOffset": 323232,
            "byteLength": 288,
            "target": 34962
        },
        {
            "buffer": 0,
            "byteOffset": 323520,
            "byteLength": 288,
            "target": 34962
        },
        {
            "buffer": 0,
            "byteOffset": 323808,
            "byteLength": 192,
            "target": 34962
        },
        {
            "buffer": 0,
            "byteOffset": 324000,
            "byteLength": 15276,
            "target": 34963
        },
        {
            "buffer": 0,
            "byteOffset": 339276,
            "byteLength": 18192,
            "target": 34962
        },
        {
            "buffer": 0,
            "byteOffset": 357468,
            "byteLength": 18192,
            "target": 34962
        },
        {
            "buffer": 0,
            "byteOffset": 375660,
            "byteLength": 12128,
            "target": 34962
        },
        {
            "buffer": 0,
            "byteOffset": 387788,
            "byteLength": 20160,
            "target": 34963
        },
        {
            "buffer": 0,
            "byteOffset": 407948,
            "byteLength": 36336,
            "target": 34962
        },
        {
            "buffer": 0,
            "byteOffset": 444284,
            "byteLength": 36336,
            "target": 34962
        },
        {
            "buffer": 0,
            "byteOffset": 480620,
            "byteLength": 24224,
            "target": 34962
        }
    ],
    "accessors": [
        {
            "bufferView": 0,
            "byteOffset": 0,
            "componentType": 5125,
            "count": 5040,
            "type": "SCALAR"
        },
        {
            "bufferView": 1,
            "byteOffset": 0,
            "componentType": 5126,
            "count": 3024,
            "min": [
                -2.134575366973877,
                -0.031173763796687126,
                -2.126323938369751
            ],
            "max": [
                2.134575366973877,
                4.209052085876465,
                2.1264097690582275
            ],
            "type": "VEC3"
        },
        {
            "bufferView": 2,
            "byteOffset": 0,
            "componentType": 5126,
            "count": 3024,
            "type": "VEC3"
        },
        {
            "bufferView": 3,
            "byteOffset": 0,
            "componentType": 5126,
            "count": 3024,
            "type": "VEC2"
        },
        {
            "bufferView": 4,
            "byteOffset": 0,
            "componentType": 5125,
            "count": 8868,
            "type": "SCALAR"
        },
        {
            "bufferView": 5,
            "byteOffset": 0,
            "componentType": 5126,
            "count": 5334,
            "min": [
                -2.1448709964752197,
                4.074261665344238,
                -2.136579751968384
            ],
            "max": [
                2.1448709964752197,
                4.602656841278076,
                2.1366660594940186
            ],
            "type": "VEC3"
        },
        {
            "bufferView": 6,
            "byteOffset": 0,
            "componentType": 5126,
            "count": 5334,
            "type": "VEC3"
        },
        {
            "bufferView": 7,
            "byteOffset": 0,
            "componentType": 5126,
            "count": 5334,
            "type": "VEC2"
        },
        {
            "bufferView": 8,
            "byteOffset": 0,
            "componentType": 5125,
            "count": 36,
            "type": "SCALAR"
        },
        {
            "bufferView": 9,
            "byteOffset": 0,
            "componentType": 5126,
            "count": 24,
            "min": [
                -2.108907461166382,
                0.04121711850166321,
                -2.100755214691162
            ],
            "max": [
                2.108907461166382,
                0.051257696002721786,
                2.1008405685424805
            ],
            "type": "VEC3"
        },
        {
            "bufferView": 10,
            "byteOffset": 0,
            "componentType": 5126,
            "count": 24,
            "type": "VEC3"
        },
        {
            "bufferView": 11,
            "byteOffset": 0,
            "componentType": 5126,
            "count": 24,
            "type": "VEC2"
        },
        {
            "bufferView": 12,
            "byteOffset": 0,
            "componentType": 5125,
            "count": 3819,
            "type": "SCALAR"
        },
        {
            "bufferView": 13,
            "byteOffset": 0,
            "componentType": 5126,
            "count": 1516,
            "min": [
                -1.3363553285598755,
                0.6510876417160034,
                2.0825302600860596
            ],
            "max": [
                1.3363553285598755,
                1.9123172760009766,
                2.2830283641815186
            ],
            "type": "VEC3"
        },
        {
            "bufferView": 14,
            "byteOffset": 0,
            "componentType": 5126,
            "count": 1516,
            "type": "VEC3"
        },
        {
            "bufferView": 15,
            "byteOffset": 0,
            "componentType": 5126,
            "count": 1516,
            "type": "VEC2"
        },
        {
            "bufferView": 16,
            "byteOffset": 0,
            "componentType": 5125,
            "count": 5040,
            "type": "SCALAR"
        },
        {
            "bufferView": 17,
            "byteOffset": 0,
            "componentType": 5126,
            "count": 3028,
            "min": [
                -2.134575605392456,
                -0.031173763796687126,
                -2.126323938369751
            ],
            "max": [
                2.134575605392456,
                4.213742733001709,
                2.1264102458953857
            ],
            "type": "VEC3"
        },
        {
            "bufferView": 18,
            "byteOffset": 0,
            "componentType": 5126,
            "count": 3028,
            "type": "VEC3"
        },
        {
            "bufferView": 19,
            "byteOffset": 0,
            "componentType": 5126,
            "count": 3028,
            "type": "VEC2"
        }
    ],
    "images": [
        {
            "uri": "Cyber nest_Box_mat_Base_color.png"
        },
        {
            "uri": "Cyber nest_Box_mat_Metallic-Cyber nest_Box_mat_Roughness.png"
        },
        {
            "uri": "Cyber nest_Box_mat_Normal.png"
        }
    ],
    "textures": [
        {
            "source": 0
        },
        {
            "source": 1
        },
        {
            "source": 2
        }
    ]
}