{
	"asset":{
		"generator":"Khronos glTF Blender I/O v3.6.27",
		"version":"2.0"
	},
	"scene":0,
	"scenes":[
		{
			"name":"Scene",
			"nodes":[
				0
			]
		}
	],
	"nodes":[
		{
			"mesh":0,
			"name":"Konfigurator",
			"rotation":[
				0.70710688829422,
				0,
				0,
				0.7071066498756409
			],
			"scale":[
				0.0010000000474974513,
				0.0009999999310821295,
				0.0009999999310821295
			],
			"translation":[
				-0.6348249912261963,
				0.21212659776210785,
				0.030977018177509308
			]
		}
	],
	"materials":[
		{
			"doubleSided":true,
			"name":"Material.001",
			"pbrMetallicRoughness":{
				"baseColorTexture":{
					"index":0,
					"texCoord":1
				},
				"metallicFactor":0,
				"roughnessFactor":0.5
			}
		}
	],
	"meshes":[
		{
			"name":"Konfigurator.001",
			"primitives":[
				{
					"attributes":{
						"POSITION":0,
						"NORMAL":1,
						"TEXCOORD_0":2,
						"TEXCOORD_1":3
					},
					"indices":4,
					"material":0
				}
			]
		}
	],
	"textures":[
		{
			"sampler":0,
			"source":0
		}
	],
	"images":[
		{
			"mimeType":"image/jpeg",
			"name":"konfigurator color map",
			"uri":"konfigurator%20color%20map.jpg"
		}
	],
	"accessors":[
		{
			"bufferView":0,
			"componentType":5126,
			"count":444366,
			"max":[
				200,
				200,
				200.1264190673828
			],
			"min":[
				-200,
				-200.00003051757812,
				-200.12643432617188
			],
			"type":"VEC3"
		},
		{
			"bufferView":1,
			"componentType":5126,
			"count":444366,
			"type":"VEC3"
		},
		{
			"bufferView":2,
			"componentType":5126,
			"count":444366,
			"type":"VEC2"
		},
		{
			"bufferView":3,
			"componentType":5126,
			"count":444366,
			"type":"VEC2"
		},
		{
			"bufferView":4,
			"componentType":5125,
			"count":2480238,
			"type":"SCALAR"
		}
	],
	"bufferViews":[
		{
			"buffer":0,
			"byteLength":5332392,
			"byteOffset":0,
			"target":34962
		},
		{
			"buffer":0,
			"byteLength":5332392,
			"byteOffset":5332392,
			"target":34962
		},
		{
			"buffer":0,
			"byteLength":3554928,
			"byteOffset":10664784,
			"target":34962
		},
		{
			"buffer":0,
			"byteLength":3554928,
			"byteOffset":14219712,
			"target":34962
		},
		{
			"buffer":0,
			"byteLength":9920952,
			"byteOffset":17774640,
			"target":34963
		}
	],
	"samplers":[
		{
			"magFilter":9729,
			"minFilter":9987
		}
	],
	"buffers":[
		{
			"byteLength":27695592,
			"uri":"NewSample.bin"
		}
	]
}
