{
	"asset":{
		"generator":"Khronos glTF Blender I/O v3.6.27",
		"version":"2.0"
	},
	"scene":0,
	"scenes":[
		{
			"name":"Scene",
			"nodes":[
				0,
				1
			]
		}
	],
	"nodes":[
		{
			"mesh":0,
			"name":"Konfigurator",
			"rotation":[
				0.70710688829422,
				0,
				0,
				0.7071066498756409
			],
			"scale":[
				0.0010000000474974513,
				0.0009999999310821295,
				0.0009999999310821295
			],
			"translation":[
				-0.6348249912261963,
				0.21212659776210785,
				0.030977018177509308
			]
		},
		{
			"mesh":1,
			"name":"BoomBox",
			"rotation":[
				0,
				1,
				0,
				0
			],
			"scale":[
				10.306283950805664,
				10.306283950805664,
				10.306283950805664
			]
		}
	],
	"materials":[
		{
			"doubleSided":true,
			"name":"Material.002",
			"pbrMetallicRoughness":{
				"baseColorTexture":{
					"index":0
				},
				"metallicFactor":0,
				"roughnessFactor":0.5
			}
		},
		{
			"emissiveFactor":[
				1,
				1,
				1
			],
			"emissiveTexture":{
				"index":1
			},
			"name":"BoomBox_Mat",
			"normalTexture":{
				"index":2
			},
			"occlusionTexture":{
				"index":3
			},
			"pbrMetallicRoughness":{
				"baseColorTexture":{
					"index":4
				},
				"metallicRoughnessTexture":{
					"index":3
				}
			}
		}
	],
	"meshes":[
		{
			"name":"Konfigurator.001",
			"primitives":[
				{
					"attributes":{
						"POSITION":0,
						"NORMAL":1,
						"TEXCOORD_0":2
					},
					"indices":3,
					"material":0
				}
			]
		},
		{
			"name":"BoomBox",
			"primitives":[
				{
					"attributes":{
						"POSITION":4,
						"NORMAL":5,
						"TEXCOORD_0":6
					},
					"indices":7,
					"material":1
				}
			]
		}
	],
	"textures":[
		{
			"sampler":0,
			"source":0
		},
		{
			"sampler":0,
			"source":1
		},
		{
			"sampler":0,
			"source":2
		},
		{
			"sampler":0,
			"source":3
		},
		{
			"sampler":0,
			"source":4
		}
	],
	"images":[
		{
			"mimeType":"image/png",
			"name":"konfigurator color map",
			"uri":"konfigurator%20color%20map.png"
		},
		{
			"mimeType":"image/png",
			"name":"BoomBox_emissive",
			"uri":"BoomBox_emissive.png"
		},
		{
			"mimeType":"image/png",
			"name":"BoomBox_normal",
			"uri":"BoomBox_normal.png"
		},
		{
			"mimeType":"image/png",
			"name":"BoomBox_occlusionRoughnessMetallic",
			"uri":"BoomBox_occlusionRoughnessMetallic.png"
		},
		{
			"mimeType":"image/png",
			"name":"BoomBox_baseColor",
			"uri":"BoomBox_baseColor.png"
		}
	],
	"accessors":[
		{
			"bufferView":0,
			"componentType":5126,
			"count":444366,
			"max":[
				200,
				200,
				200.1264190673828
			],
			"min":[
				-200,
				-200.00003051757812,
				-200.12643432617188
			],
			"type":"VEC3"
		},
		{
			"bufferView":1,
			"componentType":5126,
			"count":444366,
			"type":"VEC3"
		},
		{
			"bufferView":2,
			"componentType":5126,
			"count":444366,
			"type":"VEC2"
		},
		{
			"bufferView":3,
			"componentType":5125,
			"count":2480238,
			"type":"SCALAR"
		},
		{
			"bufferView":4,
			"componentType":5126,
			"count":3593,
			"max":[
				0.009921154007315636,
				0.00977163016796112,
				0.010076245293021202
			],
			"min":[
				-0.009921154007315636,
				-0.00977163016796112,
				-0.010076245293021202
			],
			"type":"VEC3"
		},
		{
			"bufferView":5,
			"componentType":5126,
			"count":3593,
			"type":"VEC3"
		},
		{
			"bufferView":6,
			"componentType":5126,
			"count":3593,
			"type":"VEC2"
		},
		{
			"bufferView":7,
			"componentType":5123,
			"count":18108,
			"type":"SCALAR"
		}
	],
	"bufferViews":[
		{
			"buffer":0,
			"byteLength":5332392,
			"byteOffset":0,
			"target":34962
		},
		{
			"buffer":0,
			"byteLength":5332392,
			"byteOffset":5332392,
			"target":34962
		},
		{
			"buffer":0,
			"byteLength":3554928,
			"byteOffset":10664784,
			"target":34962
		},
		{
			"buffer":0,
			"byteLength":9920952,
			"byteOffset":14219712,
			"target":34963
		},
		{
			"buffer":0,
			"byteLength":43116,
			"byteOffset":24140664,
			"target":34962
		},
		{
			"buffer":0,
			"byteLength":43116,
			"byteOffset":24183780,
			"target":34962
		},
		{
			"buffer":0,
			"byteLength":28744,
			"byteOffset":24226896,
			"target":34962
		},
		{
			"buffer":0,
			"byteLength":36216,
			"byteOffset":24255640,
			"target":34963
		}
	],
	"samplers":[
		{
			"magFilter":9729,
			"minFilter":9987
		}
	],
	"buffers":[
		{
			"byteLength":24291856,
			"uri":"NewSample2.bin"
		}
	]
}
